<svg xmlns="http://www.w3.org/2000/svg" xmlns:xlink="http://www.w3.org/1999/xlink" contentStyleType="text/css" data-diagram-type="CLASS" height="877px" preserveAspectRatio="none" style="width:1414px;height:877px;background:#FFFFFF;" version="1.1" viewBox="0 0 1414 877" width="1414px" zoomAndPan="magnify"><defs/><g><!--class User--><g class="entity" data-entity="User" data-source-line="1" data-uid="ent0002" id="entity_User"><rect fill="#F1F1F1" height="162.0781" rx="2.5" ry="2.5" style="stroke:#181818;stroke-width:0.5;" width="161.126" x="490.55" y="229.79"/><ellipse cx="550.9079" cy="245.79" fill="#ADD1B2" rx="11" ry="11" style="stroke:#181818;stroke-width:1;"/><path d="M553.8767,251.4306 Q553.2985,251.7275 552.6579,251.8681 Q552.0173,252.0244 551.3142,252.0244 Q548.8142,252.0244 547.486,250.3837 Q546.1735,248.7275 546.1735,245.6025 Q546.1735,242.4775 547.486,240.8212 Q548.8142,239.165 551.3142,239.165 Q552.0173,239.165 552.6579,239.3212 Q553.3142,239.4775 553.8767,239.7744 L553.8767,242.4931 Q553.2517,241.915 552.6579,241.6494 Q552.0642,241.3681 551.4392,241.3681 Q550.0954,241.3681 549.4079,242.4462 Q548.7204,243.5087 548.7204,245.6025 Q548.7204,247.6962 549.4079,248.7744 Q550.0954,249.8369 551.4392,249.8369 Q552.0642,249.8369 552.6579,249.5712 Q553.2517,249.29 553.8767,248.7119 L553.8767,251.4306 Z " fill="#000000"/><text fill="#000000" font-family="sans-serif" font-size="14" lengthAdjust="spacing" textLength="31.9102" x="571.4079" y="250.6367">User</text><line style="stroke:#181818;stroke-width:0.5;" x1="491.55" x2="650.676" y1="261.79" y2="261.79"/><ellipse cx="501.55" cy="275.4384" fill="none" rx="3" ry="3" style="stroke:#038048;stroke-width:1;"/><text fill="#000000" font-family="sans-serif" font-size="14" lengthAdjust="spacing" textLength="92.3193" x="510.55" y="278.7851">id: uuid.UUID</text><ellipse cx="501.55" cy="291.7353" fill="none" rx="3" ry="3" style="stroke:#038048;stroke-width:1;"/><text fill="#000000" font-family="sans-serif" font-size="14" lengthAdjust="spacing" textLength="67.4092" x="510.55" y="295.082">name: str</text><ellipse cx="501.55" cy="308.0322" fill="none" rx="3" ry="3" style="stroke:#038048;stroke-width:1;"/><text fill="#000000" font-family="sans-serif" font-size="14" lengthAdjust="spacing" textLength="66.3154" x="510.55" y="311.3789">email: str</text><ellipse cx="501.55" cy="324.3291" fill="none" rx="3" ry="3" style="stroke:#038048;stroke-width:1;"/><text fill="#000000" font-family="sans-serif" font-size="14" lengthAdjust="spacing" textLength="49.2188" x="510.55" y="327.6757">cpf: str</text><ellipse cx="501.55" cy="340.6259" fill="none" rx="3" ry="3" style="stroke:#038048;stroke-width:1;"/><text fill="#000000" font-family="sans-serif" font-size="14" lengthAdjust="spacing" textLength="135.126" x="510.55" y="343.9726">phones: list[Phone]</text><ellipse cx="501.55" cy="356.9228" fill="none" rx="3" ry="3" style="stroke:#038048;stroke-width:1;"/><text fill="#000000" font-family="sans-serif" font-size="14" lengthAdjust="spacing" textLength="120.7842" x="510.55" y="360.2695">address: Address</text><ellipse cx="501.55" cy="373.2197" fill="none" rx="3" ry="3" style="stroke:#038048;stroke-width:1;"/><text fill="#000000" font-family="sans-serif" font-size="14" lengthAdjust="spacing" textLength="98.6973" x="510.55" y="376.5664">role: UserRole</text><line style="stroke:#181818;stroke-width:0.5;" x1="491.55" x2="650.676" y1="383.8681" y2="383.8681"/></g><!--class UserRole--><g class="entity" data-entity="UserRole" data-source-line="11" data-uid="ent0003" id="entity_UserRole"><rect fill="#F1F1F1" height="96.8906" rx="2.5" ry="2.5" style="stroke:#181818;stroke-width:0.5;" width="94.7061" x="523.76" y="31.45"/><ellipse cx="538.76" cy="47.45" fill="#EB937F" rx="11" ry="11" style="stroke:#181818;stroke-width:1;"/><path d="M542.8694,53.45 L535.1506,53.45 L535.1506,41.0594 L542.8694,41.0594 L542.8694,43.2156 L537.6038,43.2156 L537.6038,45.8875 L542.3694,45.8875 L542.3694,48.0437 L537.6038,48.0437 L537.6038,51.2937 L542.8694,51.2937 L542.8694,53.45 Z " fill="#000000"/><text fill="#000000" font-family="sans-serif" font-size="14" lengthAdjust="spacing" textLength="62.7061" x="552.76" y="52.2967">UserRole</text><line style="stroke:#181818;stroke-width:0.5;" x1="524.76" x2="617.4661" y1="63.45" y2="63.45"/><text fill="#000000" font-family="sans-serif" font-size="14" lengthAdjust="spacing" textLength="47.3799" x="529.76" y="80.4451">GUEST</text><text fill="#000000" font-family="sans-serif" font-size="14" lengthAdjust="spacing" textLength="38.9854" x="529.76" y="96.742">HOST</text><text fill="#000000" font-family="sans-serif" font-size="14" lengthAdjust="spacing" textLength="47.0381" x="529.76" y="113.0389">ADMIN</text><line style="stroke:#181818;stroke-width:0.5;" x1="524.76" x2="617.4661" y1="120.3406" y2="120.3406"/></g><!--class Property--><g class="entity" data-entity="Property" data-source-line="17" data-uid="ent0004" id="entity_Property"><rect fill="#F1F1F1" height="162.0781" rx="2.5" ry="2.5" style="stroke:#181818;stroke-width:0.5;" width="319.2549" x="722.48" y="468.86"/><ellipse cx="847.9605" cy="484.86" fill="#A9DCDF" rx="11" ry="11" style="stroke:#181818;stroke-width:1;"/><path d="M848.0698,480.2037 L846.9136,485.2819 L849.2417,485.2819 L848.0698,480.2037 Z M846.5855,477.9694 L849.5698,477.9694 L852.9292,490.36 L850.4761,490.36 L849.7105,487.2975 L846.4292,487.2975 L845.6792,490.36 L843.2417,490.36 L846.5855,477.9694 Z " fill="#000000"/><text fill="#000000" font-family="sans-serif" font-size="14" font-style="italic" lengthAdjust="spacing" textLength="59.7939" x="868.4605" y="489.7067">Property</text><line style="stroke:#181818;stroke-width:0.5;" x1="723.48" x2="1040.7349" y1="500.86" y2="500.86"/><ellipse cx="733.48" cy="514.5084" fill="none" rx="3" ry="3" style="stroke:#038048;stroke-width:1;"/><text fill="#000000" font-family="sans-serif" font-size="14" lengthAdjust="spacing" textLength="92.3193" x="742.48" y="517.8551">id: uuid.UUID</text><ellipse cx="733.48" cy="530.8053" fill="none" rx="3" ry="3" style="stroke:#038048;stroke-width:1;"/><text fill="#000000" font-family="sans-serif" font-size="14" lengthAdjust="spacing" textLength="55.0771" x="742.48" y="534.152">title: str</text><ellipse cx="733.48" cy="547.1022" fill="none" rx="3" ry="3" style="stroke:#038048;stroke-width:1;"/><text fill="#000000" font-family="sans-serif" font-size="14" lengthAdjust="spacing" textLength="226.5361" x="742.48" y="550.4489">description: PropertyDescription</text><ellipse cx="733.48" cy="563.3991" fill="none" rx="3" ry="3" style="stroke:#038048;stroke-width:1;"/><text fill="#000000" font-family="sans-serif" font-size="14" lengthAdjust="spacing" textLength="120.7842" x="742.48" y="566.7457">address: Address</text><ellipse cx="733.48" cy="579.6959" fill="none" rx="3" ry="3" style="stroke:#038048;stroke-width:1;"/><text fill="#000000" font-family="sans-serif" font-size="14" lengthAdjust="spacing" textLength="174.3643" x="742.48" y="583.0426">price_per_night: Decimal</text><ellipse cx="733.48" cy="595.9928" fill="none" rx="3" ry="3" style="stroke:#038048;stroke-width:1;"/><text fill="#000000" font-family="sans-serif" font-size="14" lengthAdjust="spacing" textLength="167.8975" x="742.48" y="599.3395">amenities: list[Amenity]</text><ellipse cx="733.48" cy="612.2897" fill="none" rx="3" ry="3" style="stroke:#038048;stroke-width:1;"/><text fill="#000000" font-family="sans-serif" font-size="14" lengthAdjust="spacing" textLength="293.2549" x="742.48" y="615.6364">availability_calendar: AvailabilityCalendar</text><line style="stroke:#181818;stroke-width:0.5;" x1="723.48" x2="1040.7349" y1="622.9381" y2="622.9381"/></g><!--class House--><g class="entity" data-entity="House" data-source-line="27" data-uid="ent0005" id="entity_House"><rect fill="#F1F1F1" height="80.5938" rx="2.5" ry="2.5" style="stroke:#181818;stroke-width:0.5;" width="146.415" x="756.9" y="748.68"/><ellipse cx="803.921" cy="764.68" fill="#ADD1B2" rx="11" ry="11" style="stroke:#181818;stroke-width:1;"/><path d="M806.8897,770.3206 Q806.3116,770.6175 805.671,770.7581 Q805.0304,770.9144 804.3272,770.9144 Q801.8272,770.9144 800.4991,769.2738 Q799.1866,767.6175 799.1866,764.4925 Q799.1866,761.3675 800.4991,759.7113 Q801.8272,758.055 804.3272,758.055 Q805.0304,758.055 805.671,758.2113 Q806.3272,758.3675 806.8897,758.6644 L806.8897,761.3831 Q806.2647,760.805 805.671,760.5394 Q805.0772,760.2581 804.4522,760.2581 Q803.1085,760.2581 802.421,761.3363 Q801.7335,762.3988 801.7335,764.4925 Q801.7335,766.5863 802.421,767.6644 Q803.1085,768.7269 804.4522,768.7269 Q805.0772,768.7269 805.671,768.4613 Q806.2647,768.18 806.8897,767.6019 L806.8897,770.3206 Z " fill="#000000"/><text fill="#000000" font-family="sans-serif" font-size="14" lengthAdjust="spacing" textLength="43.873" x="824.421" y="769.5267">House</text><line style="stroke:#181818;stroke-width:0.5;" x1="757.9" x2="902.315" y1="780.68" y2="780.68"/><ellipse cx="767.9" cy="794.3284" fill="none" rx="3" ry="3" style="stroke:#038048;stroke-width:1;"/><text fill="#000000" font-family="sans-serif" font-size="14" lengthAdjust="spacing" textLength="100.7275" x="776.9" y="797.6751">has_pool: bool</text><ellipse cx="767.9" cy="810.6253" fill="none" rx="3" ry="3" style="stroke:#038048;stroke-width:1;"/><text fill="#000000" font-family="sans-serif" font-size="14" lengthAdjust="spacing" textLength="120.415" x="776.9" y="813.972">has_garden: bool</text><line style="stroke:#181818;stroke-width:0.5;" x1="757.9" x2="902.315" y1="821.2738" y2="821.2738"/></g><!--class Apartment--><g class="entity" data-entity="Apartment" data-source-line="32" data-uid="ent0007" id="entity_Apartment"><rect fill="#F1F1F1" height="80.5938" rx="2.5" ry="2.5" style="stroke:#181818;stroke-width:0.5;" width="154.6113" x="938.8" y="748.68"/><ellipse cx="975.2695" cy="764.68" fill="#ADD1B2" rx="11" ry="11" style="stroke:#181818;stroke-width:1;"/><path d="M978.2382,770.3206 Q977.6601,770.6175 977.0195,770.7581 Q976.3789,770.9144 975.6757,770.9144 Q973.1757,770.9144 971.8476,769.2738 Q970.5351,767.6175 970.5351,764.4925 Q970.5351,761.3675 971.8476,759.7113 Q973.1757,758.055 975.6757,758.055 Q976.3789,758.055 977.0195,758.2113 Q977.6757,758.3675 978.2382,758.6644 L978.2382,761.3831 Q977.6132,760.805 977.0195,760.5394 Q976.4257,760.2581 975.8007,760.2581 Q974.457,760.2581 973.7695,761.3363 Q973.082,762.3988 973.082,764.4925 Q973.082,766.5863 973.7695,767.6644 Q974.457,768.7269 975.8007,768.7269 Q976.4257,768.7269 977.0195,768.4613 Q977.6132,768.18 978.2382,767.6019 L978.2382,770.3206 Z " fill="#000000"/><text fill="#000000" font-family="sans-serif" font-size="14" lengthAdjust="spacing" textLength="74.9014" x="994.0405" y="769.5267">Apartment</text><line style="stroke:#181818;stroke-width:0.5;" x1="939.8" x2="1092.4113" y1="780.68" y2="780.68"/><ellipse cx="949.8" cy="794.3284" fill="none" rx="3" ry="3" style="stroke:#038048;stroke-width:1;"/><text fill="#000000" font-family="sans-serif" font-size="14" lengthAdjust="spacing" textLength="128.6113" x="958.8" y="797.6751">has_elevator: bool</text><ellipse cx="949.8" cy="810.6253" fill="none" rx="3" ry="3" style="stroke:#038048;stroke-width:1;"/><text fill="#000000" font-family="sans-serif" font-size="14" lengthAdjust="spacing" textLength="123.7988" x="958.8" y="813.972">has_parking: bool</text><line style="stroke:#181818;stroke-width:0.5;" x1="939.8" x2="1092.4113" y1="821.2738" y2="821.2738"/></g><!--class Reservation--><g class="entity" data-entity="Reservation" data-source-line="37" data-uid="ent0009" id="entity_Reservation"><rect fill="#F1F1F1" height="162.0781" rx="2.5" ry="2.5" style="stroke:#181818;stroke-width:0.5;" width="206.4824" x="355.87" y="707.94"/><ellipse cx="413.0184" cy="723.94" fill="#ADD1B2" rx="11" ry="11" style="stroke:#181818;stroke-width:1;"/><path d="M415.9872,729.5806 Q415.4091,729.8775 414.7684,730.0181 Q414.1278,730.1744 413.4247,730.1744 Q410.9247,730.1744 409.5966,728.5337 Q408.2841,726.8775 408.2841,723.7525 Q408.2841,720.6275 409.5966,718.9712 Q410.9247,717.315 413.4247,717.315 Q414.1278,717.315 414.7684,717.4712 Q415.4247,717.6275 415.9872,717.9244 L415.9872,720.6431 Q415.3622,720.065 414.7684,719.7994 Q414.1747,719.5181 413.5497,719.5181 Q412.2059,719.5181 411.5184,720.5962 Q410.8309,721.6587 410.8309,723.7525 Q410.8309,725.8462 411.5184,726.9244 Q412.2059,727.9869 413.5497,727.9869 Q414.1747,727.9869 414.7684,727.7212 Q415.3622,727.44 415.9872,726.8619 L415.9872,729.5806 Z " fill="#000000"/><text fill="#000000" font-family="sans-serif" font-size="14" lengthAdjust="spacing" textLength="83.6855" x="433.5184" y="728.7867">Reservation</text><line style="stroke:#181818;stroke-width:0.5;" x1="356.87" x2="561.3524" y1="739.94" y2="739.94"/><ellipse cx="366.87" cy="753.5884" fill="none" rx="3" ry="3" style="stroke:#038048;stroke-width:1;"/><text fill="#000000" font-family="sans-serif" font-size="14" lengthAdjust="spacing" textLength="92.3193" x="375.87" y="756.9351">id: uuid.UUID</text><ellipse cx="366.87" cy="769.8853" fill="none" rx="3" ry="3" style="stroke:#038048;stroke-width:1;"/><text fill="#000000" font-family="sans-serif" font-size="14" lengthAdjust="spacing" textLength="129.1992" x="375.87" y="773.232">property: Property</text><ellipse cx="366.87" cy="786.1822" fill="none" rx="3" ry="3" style="stroke:#038048;stroke-width:1;"/><text fill="#000000" font-family="sans-serif" font-size="14" lengthAdjust="spacing" textLength="80.2334" x="375.87" y="789.5289">guest: User</text><ellipse cx="366.87" cy="802.4791" fill="none" rx="3" ry="3" style="stroke:#038048;stroke-width:1;"/><text fill="#000000" font-family="sans-serif" font-size="14" lengthAdjust="spacing" textLength="154.4102" x="375.87" y="805.8257">period: BookingPeriod</text><ellipse cx="366.87" cy="818.7759" fill="none" rx="3" ry="3" style="stroke:#038048;stroke-width:1;"/><text fill="#000000" font-family="sans-serif" font-size="14" lengthAdjust="spacing" textLength="180.4824" x="375.87" y="822.1226">status: ReservationStatus</text><ellipse cx="366.87" cy="835.0728" fill="none" rx="3" ry="3" style="stroke:#038048;stroke-width:1;"/><text fill="#000000" font-family="sans-serif" font-size="14" lengthAdjust="spacing" textLength="140.1094" x="375.87" y="838.4195">total_price: Decimal</text><ellipse cx="366.87" cy="851.3697" fill="none" rx="3" ry="3" style="stroke:#038048;stroke-width:1;"/><text fill="#000000" font-family="sans-serif" font-size="14" lengthAdjust="spacing" textLength="120.3672" x="375.87" y="854.7164">guests_count: int</text><line style="stroke:#181818;stroke-width:0.5;" x1="356.87" x2="561.3524" y1="862.0181" y2="862.0181"/></g><!--class PropertyDescription--><g class="entity" data-entity="PropertyDescription" data-source-line="47" data-uid="ent0010" id="entity_PropertyDescription"><rect fill="#F1F1F1" height="113.1875" rx="2.5" ry="2.5" style="stroke:#181818;stroke-width:0.5;" width="171.5283" x="814.35" y="254.23"/><ellipse cx="829.35" cy="270.23" fill="#ADD1B2" rx="11" ry="11" style="stroke:#181818;stroke-width:1;"/><path d="M832.3188,275.8706 Q831.7406,276.1675 831.1,276.3081 Q830.4594,276.4644 829.7563,276.4644 Q827.2563,276.4644 825.9281,274.8238 Q824.6156,273.1675 824.6156,270.0425 Q824.6156,266.9175 825.9281,265.2613 Q827.2563,263.605 829.7563,263.605 Q830.4594,263.605 831.1,263.7613 Q831.7563,263.9175 832.3188,264.2144 L832.3188,266.9331 Q831.6938,266.355 831.1,266.0894 Q830.5063,265.8081 829.8813,265.8081 Q828.5375,265.8081 827.85,266.8863 Q827.1625,267.9488 827.1625,270.0425 Q827.1625,272.1363 827.85,273.2144 Q828.5375,274.2769 829.8813,274.2769 Q830.5063,274.2769 831.1,274.0113 Q831.6938,273.73 832.3188,273.1519 L832.3188,275.8706 Z " fill="#000000"/><text fill="#000000" font-family="sans-serif" font-size="14" lengthAdjust="spacing" textLength="139.5283" x="843.35" y="275.0767">PropertyDescription</text><line style="stroke:#181818;stroke-width:0.5;" x1="815.35" x2="984.8783" y1="286.23" y2="286.23"/><ellipse cx="825.35" cy="299.8784" fill="none" rx="3" ry="3" style="stroke:#038048;stroke-width:1;"/><text fill="#000000" font-family="sans-serif" font-size="14" lengthAdjust="spacing" textLength="97.624" x="834.35" y="303.2251">bedrooms: int</text><ellipse cx="825.35" cy="316.1753" fill="none" rx="3" ry="3" style="stroke:#038048;stroke-width:1;"/><text fill="#000000" font-family="sans-serif" font-size="14" lengthAdjust="spacing" textLength="103.0654" x="834.35" y="319.522">bathrooms: int</text><ellipse cx="825.35" cy="332.4722" fill="none" rx="3" ry="3" style="stroke:#038048;stroke-width:1;"/><text fill="#000000" font-family="sans-serif" font-size="14" lengthAdjust="spacing" textLength="61.0996" x="834.35" y="335.8189">beds: int</text><ellipse cx="825.35" cy="348.7691" fill="none" rx="3" ry="3" style="stroke:#038048;stroke-width:1;"/><text fill="#000000" font-family="sans-serif" font-size="14" lengthAdjust="spacing" textLength="111.3711" x="834.35" y="352.1157">max_guests: int</text><line style="stroke:#181818;stroke-width:0.5;" x1="815.35" x2="984.8783" y1="359.4175" y2="359.4175"/></g><!--class Address--><g class="entity" data-entity="Address" data-source-line="54" data-uid="ent0011" id="entity_Address"><rect fill="#F1F1F1" height="145.7813" rx="2.5" ry="2.5" style="stroke:#181818;stroke-width:0.5;" width="150.9404" x="857.64" y="7"/><ellipse cx="900.8248" cy="23" fill="#ADD1B2" rx="11" ry="11" style="stroke:#181818;stroke-width:1;"/><path d="M903.7935,28.6406 Q903.2154,28.9375 902.5748,29.0781 Q901.9341,29.2344 901.231,29.2344 Q898.731,29.2344 897.4029,27.5938 Q896.0904,25.9375 896.0904,22.8125 Q896.0904,19.6875 897.4029,18.0313 Q898.731,16.375 901.231,16.375 Q901.9341,16.375 902.5748,16.5313 Q903.231,16.6875 903.7935,16.9844 L903.7935,19.7031 Q903.1685,19.125 902.5748,18.8594 Q901.981,18.5781 901.356,18.5781 Q900.0123,18.5781 899.3248,19.6563 Q898.6373,20.7188 898.6373,22.8125 Q898.6373,24.9063 899.3248,25.9844 Q900.0123,27.0469 901.356,27.0469 Q901.981,27.0469 902.5748,26.7813 Q903.1685,26.5 903.7935,25.9219 L903.7935,28.6406 Z " fill="#000000"/><text fill="#000000" font-family="sans-serif" font-size="14" lengthAdjust="spacing" textLength="56.3076" x="921.088" y="27.8467">Address</text><line style="stroke:#181818;stroke-width:0.5;" x1="858.64" x2="1007.5804" y1="39" y2="39"/><ellipse cx="868.64" cy="52.6484" fill="none" rx="3" ry="3" style="stroke:#038048;stroke-width:1;"/><text fill="#000000" font-family="sans-serif" font-size="14" lengthAdjust="spacing" textLength="68.9609" x="877.64" y="55.9951">street: str</text><ellipse cx="868.64" cy="68.9453" fill="none" rx="3" ry="3" style="stroke:#038048;stroke-width:1;"/><text fill="#000000" font-family="sans-serif" font-size="14" lengthAdjust="spacing" textLength="82.3457" x="877.64" y="72.292">number: str</text><ellipse cx="868.64" cy="85.2422" fill="none" rx="3" ry="3" style="stroke:#038048;stroke-width:1;"/><text fill="#000000" font-family="sans-serif" font-size="14" lengthAdjust="spacing" textLength="124.9404" x="877.64" y="88.5889">neighborhood: str</text><ellipse cx="868.64" cy="101.5391" fill="none" rx="3" ry="3" style="stroke:#038048;stroke-width:1;"/><text fill="#000000" font-family="sans-serif" font-size="14" lengthAdjust="spacing" textLength="53.0674" x="877.64" y="104.8857">city: str</text><ellipse cx="868.64" cy="117.8359" fill="none" rx="3" ry="3" style="stroke:#038048;stroke-width:1;"/><text fill="#000000" font-family="sans-serif" font-size="14" lengthAdjust="spacing" textLength="63.1709" x="877.64" y="121.1826">state: str</text><ellipse cx="868.64" cy="134.1328" fill="none" rx="3" ry="3" style="stroke:#038048;stroke-width:1;"/><text fill="#000000" font-family="sans-serif" font-size="14" lengthAdjust="spacing" textLength="88.5938" x="877.64" y="137.4795">zip_code: str</text><line style="stroke:#181818;stroke-width:0.5;" x1="858.64" x2="1007.5804" y1="144.7813" y2="144.7813"/></g><!--class Phone--><g class="entity" data-entity="Phone" data-source-line="63" data-uid="ent0012" id="entity_Phone"><rect fill="#F1F1F1" height="96.8906" rx="2.5" ry="2.5" style="stroke:#181818;stroke-width:0.5;" width="148.0078" x="413.11" y="501.46"/><ellipse cx="461.1803" cy="517.46" fill="#ADD1B2" rx="11" ry="11" style="stroke:#181818;stroke-width:1;"/><path d="M464.1491,523.1006 Q463.5709,523.3975 462.9303,523.5381 Q462.2897,523.6944 461.5866,523.6944 Q459.0866,523.6944 457.7584,522.0538 Q456.4459,520.3975 456.4459,517.2725 Q456.4459,514.1475 457.7584,512.4913 Q459.0866,510.835 461.5866,510.835 Q462.2897,510.835 462.9303,510.9913 Q463.5866,511.1475 464.1491,511.4444 L464.1491,514.1631 Q463.5241,513.585 462.9303,513.3194 Q462.3366,513.0381 461.7116,513.0381 Q460.3678,513.0381 459.6803,514.1163 Q458.9928,515.1788 458.9928,517.2725 Q458.9928,519.3663 459.6803,520.4444 Q460.3678,521.5069 461.7116,521.5069 Q462.3366,521.5069 462.9303,521.2413 Q463.5241,520.96 464.1491,520.3819 L464.1491,523.1006 Z " fill="#000000"/><text fill="#000000" font-family="sans-serif" font-size="14" lengthAdjust="spacing" textLength="43.3672" x="481.6803" y="522.3067">Phone</text><line style="stroke:#181818;stroke-width:0.5;" x1="414.11" x2="560.1178" y1="533.46" y2="533.46"/><ellipse cx="424.11" cy="547.1084" fill="none" rx="3" ry="3" style="stroke:#038048;stroke-width:1;"/><text fill="#000000" font-family="sans-serif" font-size="14" lengthAdjust="spacing" textLength="122.0078" x="433.11" y="550.4551">country_code: str</text><ellipse cx="424.11" cy="563.4053" fill="none" rx="3" ry="3" style="stroke:#038048;stroke-width:1;"/><text fill="#000000" font-family="sans-serif" font-size="14" lengthAdjust="spacing" textLength="99.9961" x="433.11" y="566.752">area_code: str</text><ellipse cx="424.11" cy="579.7022" fill="none" rx="3" ry="3" style="stroke:#038048;stroke-width:1;"/><text fill="#000000" font-family="sans-serif" font-size="14" lengthAdjust="spacing" textLength="82.3457" x="433.11" y="583.0489">number: str</text><line style="stroke:#181818;stroke-width:0.5;" x1="414.11" x2="560.1178" y1="590.3506" y2="590.3506"/></g><!--class Amenity--><g class="entity" data-entity="Amenity" data-source-line="69" data-uid="ent0013" id="entity_Amenity"><rect fill="#F1F1F1" height="64.2969" rx="2.5" ry="2.5" style="stroke:#181818;stroke-width:0.5;" width="93.4092" x="686.41" y="278.68"/><ellipse cx="702.7798" cy="294.68" fill="#ADD1B2" rx="11" ry="11" style="stroke:#181818;stroke-width:1;"/><path d="M705.7485,300.3206 Q705.1704,300.6175 704.5298,300.7581 Q703.8892,300.9144 703.186,300.9144 Q700.686,300.9144 699.3579,299.2737 Q698.0454,297.6175 698.0454,294.4925 Q698.0454,291.3675 699.3579,289.7112 Q700.686,288.055 703.186,288.055 Q703.8892,288.055 704.5298,288.2112 Q705.186,288.3675 705.7485,288.6644 L705.7485,291.3831 Q705.1235,290.805 704.5298,290.5394 Q703.936,290.2581 703.311,290.2581 Q701.9673,290.2581 701.2798,291.3362 Q700.5923,292.3987 700.5923,294.4925 Q700.5923,296.5862 701.2798,297.6644 Q701.9673,298.7269 703.311,298.7269 Q703.936,298.7269 704.5298,298.4612 Q705.1235,298.18 705.7485,297.6019 L705.7485,300.3206 Z " fill="#000000"/><text fill="#000000" font-family="sans-serif" font-size="14" lengthAdjust="spacing" textLength="58.3652" x="717.0842" y="299.5267">Amenity</text><line style="stroke:#181818;stroke-width:0.5;" x1="687.41" x2="778.8192" y1="310.68" y2="310.68"/><ellipse cx="697.41" cy="324.3284" fill="none" rx="3" ry="3" style="stroke:#038048;stroke-width:1;"/><text fill="#000000" font-family="sans-serif" font-size="14" lengthAdjust="spacing" textLength="67.4092" x="706.41" y="327.6751">name: str</text><line style="stroke:#181818;stroke-width:0.5;" x1="687.41" x2="778.8192" y1="334.9769" y2="334.9769"/></g><!--class DateRange--><g class="entity" data-entity="DateRange" data-source-line="73" data-uid="ent0014" id="entity_DateRange"><rect fill="#F1F1F1" height="80.5938" rx="2.5" ry="2.5" style="stroke:#181818;stroke-width:0.5;" width="134.6982" x="1221.76" y="509.61"/><ellipse cx="1247.8105" cy="525.61" fill="#ADD1B2" rx="11" ry="11" style="stroke:#181818;stroke-width:1;"/><path d="M1250.7792,531.2506 Q1250.2011,531.5475 1249.5605,531.6881 Q1248.9199,531.8444 1248.2167,531.8444 Q1245.7167,531.8444 1244.3886,530.2037 Q1243.0761,528.5475 1243.0761,525.4225 Q1243.0761,522.2975 1244.3886,520.6412 Q1245.7167,518.985 1248.2167,518.985 Q1248.9199,518.985 1249.5605,519.1412 Q1250.2167,519.2975 1250.7792,519.5944 L1250.7792,522.3131 Q1250.1542,521.735 1249.5605,521.4694 Q1248.9667,521.1881 1248.3417,521.1881 Q1246.998,521.1881 1246.3105,522.2662 Q1245.623,523.3287 1245.623,525.4225 Q1245.623,527.5162 1246.3105,528.5944 Q1246.998,529.6569 1248.3417,529.6569 Q1248.9667,529.6569 1249.5605,529.3912 Q1250.1542,529.11 1250.7792,528.5319 L1250.7792,531.2506 Z " fill="#000000"/><text fill="#000000" font-family="sans-serif" font-size="14" lengthAdjust="spacing" textLength="78.1416" x="1264.2662" y="530.4567">DateRange</text><line style="stroke:#181818;stroke-width:0.5;" x1="1222.76" x2="1355.4582" y1="541.61" y2="541.61"/><ellipse cx="1232.76" cy="555.2584" fill="none" rx="3" ry="3" style="stroke:#038048;stroke-width:1;"/><text fill="#000000" font-family="sans-serif" font-size="14" lengthAdjust="spacing" textLength="108.6982" x="1241.76" y="558.6051">startDate: Date</text><ellipse cx="1232.76" cy="571.5553" fill="none" rx="3" ry="3" style="stroke:#038048;stroke-width:1;"/><text fill="#000000" font-family="sans-serif" font-size="14" lengthAdjust="spacing" textLength="102.4639" x="1241.76" y="574.902">endDate: Date</text><line style="stroke:#181818;stroke-width:0.5;" x1="1222.76" x2="1355.4582" y1="582.2037" y2="582.2037"/></g><!--class AvailabilityCalendar--><g class="entity" data-entity="AvailabilityCalendar" data-source-line="78" data-uid="ent0015" id="entity_AvailabilityCalendar"><rect fill="#F1F1F1" height="80.5938" rx="2.5" ry="2.5" style="stroke:#181818;stroke-width:0.5;" width="253.8486" x="1153.19" y="270.53"/><ellipse cx="1205.8233" cy="286.53" fill="#ADD1B2" rx="11" ry="11" style="stroke:#181818;stroke-width:1;"/><path d="M1208.7921,292.1706 Q1208.2139,292.4675 1207.5733,292.6081 Q1206.9327,292.7644 1206.2296,292.7644 Q1203.7296,292.7644 1202.4014,291.1238 Q1201.0889,289.4675 1201.0889,286.3425 Q1201.0889,283.2175 1202.4014,281.5613 Q1203.7296,279.905 1206.2296,279.905 Q1206.9327,279.905 1207.5733,280.0613 Q1208.2296,280.2175 1208.7921,280.5144 L1208.7921,283.2331 Q1208.1671,282.655 1207.5733,282.3894 Q1206.9796,282.1081 1206.3546,282.1081 Q1205.0108,282.1081 1204.3233,283.1863 Q1203.6358,284.2488 1203.6358,286.3425 Q1203.6358,288.4363 1204.3233,289.5144 Q1205.0108,290.5769 1206.3546,290.5769 Q1206.9796,290.5769 1207.5733,290.3113 Q1208.1671,290.03 1208.7921,289.4519 L1208.7921,292.1706 Z " fill="#000000"/><text fill="#000000" font-family="sans-serif" font-size="14" lengthAdjust="spacing" textLength="140.082" x="1226.3233" y="291.3767">AvailabilityCalendar</text><line style="stroke:#181818;stroke-width:0.5;" x1="1154.19" x2="1406.0386" y1="302.53" y2="302.53"/><ellipse cx="1164.19" cy="316.1784" fill="none" rx="3" ry="3" style="stroke:#038048;stroke-width:1;"/><text fill="#000000" font-family="sans-serif" font-size="14" lengthAdjust="spacing" textLength="227.8486" x="1173.19" y="319.5251">available_dates: list[DateRange]</text><ellipse cx="1164.19" cy="332.4753" fill="none" rx="3" ry="3" style="stroke:#038048;stroke-width:1;"/><text fill="#000000" font-family="sans-serif" font-size="14" lengthAdjust="spacing" textLength="219.3037" x="1173.19" y="335.822">blocked_dates: list[DateRange]</text><line style="stroke:#181818;stroke-width:0.5;" x1="1154.19" x2="1406.0386" y1="343.1238" y2="343.1238"/></g><!--class BookingPeriod--><g class="entity" data-entity="BookingPeriod" data-source-line="83" data-uid="ent0016" id="entity_BookingPeriod"><rect fill="#F1F1F1" height="80.5938" rx="2.5" ry="2.5" style="stroke:#181818;stroke-width:0.5;" width="176.2197" x="7" y="509.61"/><ellipse cx="41.6084" cy="525.61" fill="#ADD1B2" rx="11" ry="11" style="stroke:#181818;stroke-width:1;"/><path d="M44.5771,531.2506 Q43.999,531.5475 43.3584,531.6881 Q42.7178,531.8444 42.0146,531.8444 Q39.5146,531.8444 38.1865,530.2037 Q36.874,528.5475 36.874,525.4225 Q36.874,522.2975 38.1865,520.6412 Q39.5146,518.985 42.0146,518.985 Q42.7178,518.985 43.3584,519.1412 Q44.0146,519.2975 44.5771,519.5944 L44.5771,522.3131 Q43.9521,521.735 43.3584,521.4694 Q42.7646,521.1881 42.1396,521.1881 Q40.7959,521.1881 40.1084,522.2662 Q39.4209,523.3287 39.4209,525.4225 Q39.4209,527.5162 40.1084,528.5944 Q40.7959,529.6569 42.1396,529.6569 Q42.7646,529.6569 43.3584,529.3912 Q43.9521,529.11 44.5771,528.5319 L44.5771,531.2506 Z " fill="#000000"/><text fill="#000000" font-family="sans-serif" font-size="14" lengthAdjust="spacing" textLength="100.6455" x="59.9658" y="530.4567">BookingPeriod</text><line style="stroke:#181818;stroke-width:0.5;" x1="8" x2="182.2197" y1="541.61" y2="541.61"/><ellipse cx="18" cy="555.2584" fill="none" rx="3" ry="3" style="stroke:#038048;stroke-width:1;"/><text fill="#000000" font-family="sans-serif" font-size="14" lengthAdjust="spacing" textLength="140.0547" x="27" y="558.6051">check_in_date: date</text><ellipse cx="18" cy="571.5553" fill="none" rx="3" ry="3" style="stroke:#038048;stroke-width:1;"/><text fill="#000000" font-family="sans-serif" font-size="14" lengthAdjust="spacing" textLength="150.2197" x="27" y="574.902">check_out_date: date</text><line style="stroke:#181818;stroke-width:0.5;" x1="8" x2="182.2197" y1="582.2037" y2="582.2037"/></g><!--class ReservationStatus--><g class="entity" data-entity="ReservationStatus" data-source-line="88" data-uid="ent0017" id="entity_ReservationStatus"><rect fill="#F1F1F1" height="96.8906" rx="2.5" ry="2.5" style="stroke:#181818;stroke-width:0.5;" width="160.2969" x="217.96" y="501.46"/><ellipse cx="232.96" cy="517.46" fill="#EB937F" rx="11" ry="11" style="stroke:#181818;stroke-width:1;"/><path d="M237.0694,523.46 L229.3506,523.46 L229.3506,511.0694 L237.0694,511.0694 L237.0694,513.2256 L231.8038,513.2256 L231.8038,515.8975 L236.5694,515.8975 L236.5694,518.0538 L231.8038,518.0538 L231.8038,521.3038 L237.0694,521.3038 L237.0694,523.46 Z " fill="#000000"/><text fill="#000000" font-family="sans-serif" font-size="14" lengthAdjust="spacing" textLength="128.2969" x="246.96" y="522.3067">ReservationStatus</text><line style="stroke:#181818;stroke-width:0.5;" x1="218.96" x2="377.2569" y1="533.46" y2="533.46"/><text fill="#000000" font-family="sans-serif" font-size="14" lengthAdjust="spacing" textLength="63.9912" x="223.96" y="550.4551">PENDING</text><text fill="#000000" font-family="sans-serif" font-size="14" lengthAdjust="spacing" textLength="84.8818" x="223.96" y="566.752">CONFIRMED</text><text fill="#000000" font-family="sans-serif" font-size="14" lengthAdjust="spacing" textLength="83.6719" x="223.96" y="583.0489">CANCELLED</text><line style="stroke:#181818;stroke-width:0.5;" x1="218.96" x2="377.2569" y1="590.3506" y2="590.3506"/></g><!--reverse link Property to House--><g class="link" data-entity-1="Property" data-entity-2="House" data-source-line="28" data-uid="lnk6" id="link_Property_House"><path d="M860.65,648.7513 C851.98,688.2413 845.79,716.5 838.8,748.38" fill="none" id="Property-backto-House" style="stroke:#181818;stroke-width:1;"/><polygon fill="none" points="864.51,631.17,854.7896,647.4646,866.5105,650.0379,864.51,631.17" style="stroke:#181818;stroke-width:1;"/></g><!--reverse link Property to Apartment--><g class="link" data-entity-1="Property" data-entity-2="Apartment" data-source-line="33" data-uid="lnk8" id="link_Property_Apartment"><path d="M936.3369,646.8402 C958.6569,686.3302 975.71,716.5 993.73,748.38" fill="none" id="Property-backto-Apartment" style="stroke:#181818;stroke-width:1;"/><polygon fill="none" points="927.48,631.17,931.1135,649.7925,941.5603,643.8879,927.48,631.17" style="stroke:#181818;stroke-width:1;"/></g><!--link User to Reservation--><g class="link" data-entity-1="User" data-entity-2="Reservation" data-source-line="95" data-uid="lnk18" id="link_User_Reservation"><path codeLine="95" d="M589.12,392.18 C600.24,458.37 607.55,553.57 579.11,630.94 C569.11,658.16 556.2626,679.7347 538.6826,702.8447" fill="none" id="User-to-Reservation" style="stroke:#181818;stroke-width:1;"/><polygon fill="#181818" points="535.05,707.62,543.6825,702.8788,538.0772,703.6405,537.3154,698.0352,535.05,707.62" style="stroke:#181818;stroke-width:1;"/><text fill="#000000" font-family="sans-serif" font-size="13" lengthAdjust="spacing" textLength="36.3594" x="600.11" y="554.4669">guest</text><text fill="#000000" font-family="sans-serif" font-size="13" lengthAdjust="spacing" textLength="8.271" x="582.3354" y="411.8882">1</text><text fill="#000000" font-family="sans-serif" font-size="13" lengthAdjust="spacing" textLength="23.0356" x="517.7907" y="696.7788">0..*</text></g><!--link User to Property--><g class="link" data-entity-1="User" data-entity-2="Property" data-source-line="96" data-uid="lnk19" id="link_User_Property"><path codeLine="96" d="M652.14,378.52 C657.86,383.07 663.56,387.55 669.11,391.86 C701.77,417.22 732.9682,440.5928 765.9482,464.8728" fill="none" id="User-to-Property" style="stroke:#181818;stroke-width:1;"/><polygon fill="#181818" points="770.78,468.43,765.9038,459.873,766.7535,465.4657,761.1608,466.3154,770.78,468.43" style="stroke:#181818;stroke-width:1;"/><text fill="#000000" font-family="sans-serif" font-size="13" lengthAdjust="spacing" textLength="33.5981" x="728.11" y="434.9269">owns</text><text fill="#000000" font-family="sans-serif" font-size="13" lengthAdjust="spacing" textLength="8.271" x="659.7248" y="380.9536">1</text><text fill="#000000" font-family="sans-serif" font-size="13" lengthAdjust="spacing" textLength="23.0356" x="737.226" y="457.8568">0..*</text></g><!--link User to Phone--><g class="link" data-entity-1="User" data-entity-2="Phone" data-source-line="97" data-uid="lnk20" id="link_User_Phone"><path codeLine="97" d="M542.67,392.09 C529.82,428.36 517.0735,464.3244 506.0035,495.5744" fill="none" id="User-to-Phone" style="stroke:#181818;stroke-width:1;"/><polygon fill="#181818" points="504,501.23,510.7756,494.0822,505.6695,496.517,503.2348,491.4109,504,501.23" style="stroke:#181818;stroke-width:1;"/><text fill="#000000" font-family="sans-serif" font-size="13" lengthAdjust="spacing" textLength="47.4551" x="533.11" y="434.9269">phones</text><text fill="#000000" font-family="sans-serif" font-size="13" lengthAdjust="spacing" textLength="8.271" x="531.7926" y="412.0681">1</text><text fill="#000000" font-family="sans-serif" font-size="13" lengthAdjust="spacing" textLength="23.0356" x="481.7599" y="490.4066">0..*</text></g><!--link Property to Reservation--><g class="link" data-entity-1="Property" data-entity-2="Reservation" data-source-line="98" data-uid="lnk21" id="link_Property_Reservation"><path codeLine="98" d="M739.96,631.35 C712.49,646.85 683.92,662.92 657.11,677.94 C626.49,695.1 598.3946,710.7456 567.9646,727.6556" fill="none" id="Property-to-Reservation" style="stroke:#181818;stroke-width:1;"/><polygon fill="#181818" points="562.72,730.57,572.5299,729.6947,567.0905,728.1413,568.644,722.7019,562.72,730.57" style="stroke:#181818;stroke-width:1;"/><text fill="#000000" font-family="sans-serif" font-size="13" lengthAdjust="spacing" textLength="80.793" x="683.11" y="674.0069">reservations</text><text fill="#000000" font-family="sans-serif" font-size="13" lengthAdjust="spacing" textLength="8.271" x="719.4121" y="651.0668">1</text><text fill="#000000" font-family="sans-serif" font-size="13" lengthAdjust="spacing" textLength="23.0356" x="570.4551" y="723.2131">0..*</text></g><!--reverse link UserRole to User--><g class="link" data-entity-1="UserRole" data-entity-2="User" data-source-line="99" data-uid="lnk22" id="link_UserRole_User"><path codeLine="99" d="M571.11,134.61 C571.11,163.83 571.11,195.97 571.11,229.72" fill="none" id="UserRole-backto-User" style="stroke:#181818;stroke-width:1;"/><polygon fill="#181818" points="571.11,128.61,567.11,137.61,571.11,133.61,575.11,137.61,571.11,128.61" style="stroke:#181818;stroke-width:1;"/><text fill="#000000" font-family="sans-serif" font-size="13" lengthAdjust="spacing" textLength="24.9082" x="572.11" y="195.8569">role</text><text fill="#000000" font-family="sans-serif" font-size="13" lengthAdjust="spacing" textLength="8.271" x="562.7535" y="218.6244">1</text></g><!--reverse link PropertyDescription to Property--><g class="link" data-entity-1="PropertyDescription" data-entity-2="Property" data-source-line="100" data-uid="lnk23" id="link_PropertyDescription_Property"><path codeLine="100" d="M895.4151,373.6927 C893.1251,403.8127 890.72,435.52 888.2,468.71" fill="none" id="PropertyDescription-backto-Property" style="stroke:#181818;stroke-width:1;"/><polygon fill="#181818" points="895.87,367.71,891.1992,376.3809,895.4909,372.6956,899.1762,376.9873,895.87,367.71" style="stroke:#181818;stroke-width:1;"/><text fill="#000000" font-family="sans-serif" font-size="13" lengthAdjust="spacing" textLength="72.2808" x="893.11" y="434.9269">description</text><text fill="#000000" font-family="sans-serif" font-size="13" lengthAdjust="spacing" textLength="8.271" x="880.3984" y="457.8839">1</text></g><!--reverse link Address to User--><g class="link" data-entity-1="Address" data-entity-2="User" data-source-line="101" data-uid="lnk24" id="link_Address_User"><path codeLine="101" d="M852.0673,121.9484 C798.1473,150.2484 730.05,188.16 669.11,229.79 C663.49,233.63 657.79,237.71 652.11,241.92" fill="none" id="Address-backto-User" style="stroke:#181818;stroke-width:1;"/><polygon fill="#181818" points="857.38,119.16,847.552,119.8008,852.9527,121.4837,851.2699,126.8844,857.38,119.16" style="stroke:#181818;stroke-width:1;"/><text fill="#000000" font-family="sans-serif" font-size="13" lengthAdjust="spacing" textLength="51.3589" x="741.11" y="195.8569">address</text><text fill="#000000" font-family="sans-serif" font-size="13" lengthAdjust="spacing" textLength="8.271" x="659.6921" y="232.1876">1</text></g><!--reverse link Address to Property--><g class="link" data-entity-1="Address" data-entity-2="Property" data-source-line="102" data-uid="lnk25" id="link_Address_Property"><path codeLine="102" d="M977.5056,158.595 C989.0056,182.225 997.29,203.72 1003.11,229.79 C1018.81,300.09 1022.77,322.56 1003.11,391.86 C995.27,419.51 979.67,445.83 962.2,468.75" fill="none" id="Address-backto-Property" style="stroke:#181818;stroke-width:1;"/><polygon fill="#181818" points="974.88,153.2,975.2217,163.0429,977.068,157.6959,982.4151,159.5421,974.88,153.2" style="stroke:#181818;stroke-width:1;"/><text fill="#000000" font-family="sans-serif" font-size="13" lengthAdjust="spacing" textLength="51.3589" x="1018.11" y="315.3869">address</text><text fill="#000000" font-family="sans-serif" font-size="13" lengthAdjust="spacing" textLength="8.271" x="960.9891" y="457.9275">1</text></g><!--link Amenity to Property--><g class="link" data-entity-1="Amenity" data-entity-2="Property" data-source-line="103" data-uid="lnk26" id="link_Amenity_Property"><path codeLine="103" d="M752.9,343.31 C772.88,375.11 801.3873,420.47 828.3873,463.43" fill="none" id="Amenity-to-Property" style="stroke:#181818;stroke-width:1;"/><polygon fill="#181818" points="831.58,468.51,830.1776,458.7615,828.9194,464.2767,823.4042,463.0185,831.58,468.51" style="stroke:#181818;stroke-width:1;"/><text fill="#000000" font-family="sans-serif" font-size="13" lengthAdjust="spacing" textLength="63.959" x="813.11" y="434.9269">amenities</text><text fill="#000000" font-family="sans-serif" font-size="13" lengthAdjust="spacing" textLength="23.0356" x="731.4828" y="363.011">0..*</text><text fill="#000000" font-family="sans-serif" font-size="13" lengthAdjust="spacing" textLength="8.271" x="818.7357" y="457.6661">1</text></g><!--reverse link AvailabilityCalendar to Property--><g class="link" data-entity-1="AvailabilityCalendar" data-entity-2="Property" data-source-line="104" data-uid="lnk27" id="link_AvailabilityCalendar_Property"><path codeLine="104" d="M1212.5883,354.53 C1172.1583,379.91 1123.33,410.19 1075.11,438.86 C1058.78,448.57 1041.59,458.62 1024.48,468.51" fill="none" id="AvailabilityCalendar-backto-Property" style="stroke:#181818;stroke-width:1;"/><polygon fill="#181818" points="1217.67,351.34,1207.9208,352.7373,1213.4353,353.9984,1212.1742,359.5129,1217.67,351.34" style="stroke:#181818;stroke-width:1;"/><text fill="#000000" font-family="sans-serif" font-size="13" lengthAdjust="spacing" textLength="133.7197" x="1105.11" y="434.9269">availability_calendar</text><text fill="#000000" font-family="sans-serif" font-size="13" lengthAdjust="spacing" textLength="8.271" x="1028.8159" y="457.6661">1</text></g><!--link AvailabilityCalendar to DateRange--><g class="link" data-entity-1="AvailabilityCalendar" data-entity-2="DateRange" data-source-line="105" data-uid="lnk28" id="link_AvailabilityCalendar_DateRange"><path codeLine="105" d="M1281.62,351.51 C1283.28,395.4 1285.7227,459.7043 1287.3827,503.4943" fill="none" id="AvailabilityCalendar-to-DateRange" style="stroke:#181818;stroke-width:1;"/><polygon fill="#181818" points="1287.61,509.49,1291.2662,500.3449,1287.4206,504.4936,1283.2719,500.648,1287.61,509.49" style="stroke:#181818;stroke-width:1;"/><text fill="#000000" font-family="sans-serif" font-size="13" lengthAdjust="spacing" textLength="55.0278" x="1285.11" y="434.9269">contains</text><text fill="#000000" font-family="sans-serif" font-size="13" lengthAdjust="spacing" textLength="8.271" x="1273.2441" y="371.2667">1</text><text fill="#000000" font-family="sans-serif" font-size="13" lengthAdjust="spacing" textLength="23.0356" x="1262.46" y="498.6317">0..*</text></g><!--reverse link BookingPeriod to Reservation--><g class="link" data-entity-1="BookingPeriod" data-entity-2="Reservation" data-source-line="106" data-uid="lnk29" id="link_BookingPeriod_Reservation"><path codeLine="106" d="M149.8044,594.35 C166.9644,607.56 181.74,618.42 200.11,630.94 C250.08,665 307.42,700.15 355.43,728.53" fill="none" id="BookingPeriod-backto-Reservation" style="stroke:#181818;stroke-width:1;"/><polygon fill="#181818" points="145.05,590.69,149.7416,599.3496,149.012,593.74,154.6216,593.0104,145.05,590.69" style="stroke:#181818;stroke-width:1;"/><text fill="#000000" font-family="sans-serif" font-size="13" lengthAdjust="spacing" textLength="41.4121" x="271.11" y="674.0069">period</text><text fill="#000000" font-family="sans-serif" font-size="13" lengthAdjust="spacing" textLength="8.271" x="339.5321" y="720.6118">1</text></g><!--reverse link ReservationStatus to Reservation--><g class="link" data-entity-1="ReservationStatus" data-entity-2="Reservation" data-source-line="107" data-uid="lnk30" id="link_ReservationStatus_Reservation"><path codeLine="107" d="M333.8703,603.554 C355.0803,634.794 379.96,671.43 404.58,707.69" fill="none" id="ReservationStatus-backto-Reservation" style="stroke:#181818;stroke-width:1;"/><polygon fill="#181818" points="330.5,598.59,332.246,608.2829,333.3085,602.7267,338.8647,603.7892,330.5,598.59" style="stroke:#181818;stroke-width:1;"/><text fill="#000000" font-family="sans-serif" font-size="13" lengthAdjust="spacing" textLength="39.9458" x="385.11" y="674.0069">status</text><text fill="#000000" font-family="sans-serif" font-size="13" lengthAdjust="spacing" textLength="8.271" x="391.3791" y="696.855">1</text></g><!--SRC=[VLHBRzim3BxxLmYv3DYGOBiQmu0ipje0RHgaosaO3CNYOg6sP4XorsxOVnzDoOyuJY-s-8blVMHMS6lPmO9XVoF6FZ0fObRNKYmEXqr2YE8bnCmwGnAKN1Qzc5M_Ug7AjG8Riq9QzsFN23y9vq8Oi7Ynz0S2ZIxGRHDvZwVeNnI1giiEe7Hk3kl7x_Y_VQ3VChdVR1jDViIGF7Cie_HtHbTWtElL4fnqnQ060JOpid9IgxWpJdhmUjALaHcag9ygUSfTp1B8PCaBRr62aavs7LYI_1fwy8nzuqTP899cl00bk47d0tWLqAP2NzYjhYqmU768NvIPSvjMMkDZ7F7RGITk1AW0TfwM5JSEyt5lUOC2dhdJPkGHJP-aEerTxW6V2lMnOLSRNuKWVPi9FjLWdNzyhmP6QZJ-gdKJQKSYtLZ7NOqD7GHx9CY_gtQyIEbHpf-20jWqqxN2E5AvFks9zmxf7q4OhKlh3GZXBXz380PIoLzI7siK9P0cU4RY0RYUW4Zq8vY13CYcepQvRhhGpPPi6jTAJIS67FuZAonF1AIlhfcw49MgDwy3DIAY0Jw2Xkdq5NZs1b_z4kWK4indpzK9kYAHOWabsNpzjb1YWFI-9rWVl8GvAI0LQDAEKXVB3zEnqDaJY6igNPmpFhLToI5xIgKYuvY9DbMFwzeDBzgjT44_ShPRRvFDzWPFguVjjyt-VjsmVhNShjPtTtX6wtTeMf2TpMLb8zgqiqypDfz_OREFYyNxsTaWnPwwathTnCPC_rRJllpxns4LHvt9co5DBtclj80_p-TaHc5YsjVHrF2qUeFq1WisQYTXv2wirulhWPTE9J0nv4vbZ3JRpHjDCclAzzGwdhOUjQwdVOmJfXoNsBHpehNnphlibrnqIQLfTR_v_WC0]--></g></svg>